<svg width="74" height="74" viewBox="0 0 74 74" fill="none" xmlns="http://www.w3.org/2000/svg">
<path fill-rule="evenodd" clip-rule="evenodd" d="M28.987 9.26038C32.5467 3.09029 41.4518 3.09029 45.0114 9.26038L67.6873 48.5652C71.245 54.7318 66.7944 62.4376 59.675 62.4376H14.3234C7.20402 62.4376 2.75345 54.7318 6.31114 48.5652L28.987 9.26038ZM36.9998 25.4374C38.277 25.4374 39.3123 26.4727 39.3123 27.7499V39.3124C39.3123 40.5896 38.277 41.6249 36.9998 41.6249C35.7227 41.6249 34.6873 40.5896 34.6873 39.3124V27.7499C34.6873 26.4727 35.7227 25.4374 36.9998 25.4374ZM36.9998 50.8749C38.277 50.8749 39.3123 49.8396 39.3123 48.5624C39.3123 47.2853 38.277 46.2499 36.9998 46.2499C35.7227 46.2499 34.6873 47.2853 34.6873 48.5624C34.6873 49.8396 35.7227 50.8749 36.9998 50.8749Z" fill="#D9D9D9"/>
</svg>
