<svg width="76" height="76" viewBox="0 0 76 76" fill="none" xmlns="http://www.w3.org/2000/svg">
<circle cx="37.8" cy="37.8" r="36.288" stroke="#F8C52C" stroke-width="3.024"/>
<circle cx="38.2398" cy="38.24" r="29.862" stroke="#F8C52C" stroke-width="0.756"/>
<path d="M37.2943 24.34C38.4917 24.27 40.1467 24.4119 41.3106 24.7217C44.5274 25.5777 47.8644 27.6347 50.0953 30.18C50.9885 31.1992 51.9746 32.7276 52.6637 33.9345C53.8472 36.0074 55.0475 38.5548 55.1671 41.002C55.1706 41.6087 55.0886 42.2396 54.9461 42.8232C54.2904 45.5086 51.8952 46.8133 49.3313 46.1111C49.0426 46.3695 48.9569 46.5768 48.5819 46.8033L48.5893 46.8213C48.6912 47.0664 48.7427 47.2655 48.8125 47.5207C49.5521 50.229 46.4168 52.1671 44.1602 51.2848C43.6987 51.1044 43.1323 50.612 42.9418 50.128C42.1067 50.5722 39.8131 50.79 38.8292 50.8418C36.9117 50.9199 34.9948 50.6723 33.1552 50.1091C32.881 50.0247 32.4475 49.9118 32.2229 49.7574C31.2258 52.3984 27.4671 51.7815 26.3772 49.5486C25.8026 48.3715 25.9285 47.5486 26.2847 46.341C26.2477 46.3459 26.2104 46.3494 26.1731 46.3513C23.5878 46.483 21.2272 44.5399 21.1522 41.8153C21.1303 41.0196 21.1516 40.3265 21.3423 39.5469C21.6228 38.3999 22.1109 37.3608 22.5951 36.2956C23.5385 34.1409 24.517 32.0283 26.0946 30.2767C26.8377 29.4516 27.7097 28.8003 28.5786 28.1239C29.1393 27.6874 29.6884 27.2118 30.269 26.8005C32.2624 25.3885 34.8684 24.449 37.2943 24.34ZM26.9981 45.2674C27.7009 44.5076 28.7825 44.2826 29.4136 45.2904C30.1587 45.0944 30.995 45.6428 31.0714 46.4265C31.2172 46.4522 31.4257 46.4475 31.5409 46.4735C31.8314 46.5391 32.0802 46.7394 32.2551 46.9727C32.6399 47.4857 32.6086 48.4268 32.5072 49.0371C32.5031 49.0613 32.4987 49.0854 32.4937 49.1094C32.9612 49.1892 33.4295 49.3868 33.8967 49.5103C36.1822 50.1143 38.639 50.2473 40.966 49.827C41.3734 49.7535 42.3185 49.575 42.6741 49.4017C42.5721 49.233 42.5002 49.1151 42.419 48.9354C41.9359 48.9113 41.6167 48.8961 41.2508 48.4987C40.9429 48.1643 40.8768 47.7171 40.9005 47.2726C40.936 46.6265 41.219 46.0214 41.6874 45.5903C41.7854 45.5001 41.8753 45.4292 41.9824 45.3511C41.6908 44.5253 42.05 43.9038 42.7496 43.4941C43.0727 43.3585 43.5655 43.36 43.9031 43.4199C43.6288 42.5419 43.2509 41.4844 43.6717 40.6195C43.8146 40.3219 44.0687 40.097 44.3757 39.9964C44.7406 39.8783 45.0663 39.9473 45.3784 40.1538C45.2931 37.4931 45.6775 34.8386 46.5129 32.3195C46.6251 31.974 46.8608 30.9811 47.2983 30.9424C47.4666 30.9275 47.5889 31.1329 47.6571 31.2692C47.6003 31.6164 47.3817 32.2324 47.2662 32.5898C47.0924 33.1254 46.9404 33.6684 46.8111 34.2171C46.5988 35.148 46.4303 36.0704 46.299 37.017C46.2417 37.4304 46.2555 37.9907 46.2 38.3337C47.4363 38.1793 48.6957 38.23 49.9379 38.0693C50.2712 38.0261 50.6732 38.0365 51.0155 38.015L52.691 37.8993C53.0036 37.8752 53.3675 37.8268 53.6726 37.8321C53.2552 36.8016 52.8505 36.003 52.3479 35.0409C50.8661 32.2053 49.1564 29.8834 46.541 28.0666C45.3689 27.2524 44.5958 26.773 43.2543 26.1999C41.549 25.4715 39.8016 25.0758 37.9505 25.0884C37.6805 25.0903 37.2166 25.0797 36.9566 25.1051C30.9305 25.6159 26.9439 29.9268 26.3719 36.0796C26.242 37.477 26.2235 38.367 25.8654 39.7304C25.3476 41.7015 25.8898 43.6123 26.9981 45.2674ZM47.7192 46.6548C47.5358 47.1092 46.9735 48.3891 46.5253 48.5606C46.4266 48.5976 46.3176 48.5906 46.2244 48.5414C46.0012 48.4256 45.9999 48.1747 46.1196 47.9777C46.3566 47.587 46.6721 47.2472 46.8687 46.8264C47.1513 46.1328 47.2495 45.349 47.4894 44.6114C47.6391 44.151 47.9551 43.4624 48.0408 43.0461C47.6818 42.33 47.1959 42.6242 46.8095 43.1389C46.896 43.4511 47.2763 44.3 47.1314 44.5738C47.085 44.6617 46.9661 44.7561 46.8716 44.782C46.801 44.8013 46.7267 44.7843 46.666 44.7448C46.1042 44.3795 45.7319 40.5839 44.6495 40.6812C43.7123 41.0703 44.5704 43.014 44.7937 43.6852C44.9246 44.0788 45.6863 44.5462 45.5269 44.9833C45.4908 45.0796 45.4198 45.1576 45.3289 45.2011C45.1629 45.2789 44.9945 45.2126 44.8928 45.0671C44.4703 44.4627 43.8341 43.9097 43.0579 44.1899C42.6474 44.3381 42.5894 44.6914 42.6492 45.1046C43.1705 44.9825 43.6337 45.1193 44.0835 45.3973C44.5326 45.6748 44.3971 45.9803 43.9961 46.1817C43.4863 45.9601 43.2058 45.6388 42.5719 45.9103C42.1985 46.0703 41.9045 46.3802 41.7577 46.7685C41.636 47.0819 41.5789 47.5134 41.7087 47.828C41.737 47.8955 41.7711 47.9603 41.8104 48.0217C42.8502 48.6276 42.1732 46.914 43.1087 47.2666C43.4231 47.3851 43.2384 47.8451 43.1592 48.0573C42.8143 49.0173 43.7382 49.4247 44.4982 49.1449C44.7982 49.0344 45.4127 48.697 45.5238 49.1704C45.6939 49.8956 44.0554 50.002 43.6626 49.9351C43.7634 50.0423 43.9009 50.1964 44.0056 50.2935C44.5759 50.7274 45.0562 50.8222 45.759 50.7072C46.5336 50.5805 47.2936 50.1939 47.763 49.5376C48.3749 48.6821 48.2247 47.8048 47.8073 46.9012C47.7717 46.8243 47.7415 46.738 47.7192 46.6548ZM31.7779 48.6594C31.81 48.2576 31.8787 47.7275 31.6215 47.3879C31.3986 47.0956 30.8874 47.169 30.6536 47.3822C30.4235 47.5922 30.3095 48.1381 29.9281 48.0616C29.3809 47.952 29.6371 47.3998 29.862 47.1192C30.0612 46.8704 30.4476 46.5795 30.2323 46.267C30.1345 46.1319 29.9411 46.0388 29.7947 45.9831C29.4323 46.0509 29.2139 46.1466 28.9973 46.4607C28.7862 46.7628 28.5874 47.4728 28.1079 47.0832C27.7768 46.8142 28.3814 45.9705 28.5769 45.7509C28.84 45.4553 28.4686 45.3635 28.2324 45.3841C28.2113 45.386 28.1901 45.3882 28.1691 45.3908C27.715 45.5378 27.3247 45.9775 27.108 46.4028C26.359 47.8724 26.7219 49.5684 28.2068 50.3551C29.408 50.9914 30.8404 50.9124 31.4945 49.5435C31.6149 49.2914 31.7456 48.9377 31.7779 48.6594ZM22.5928 38.2428C23.0148 38.2071 23.4421 38.2202 23.8661 38.1921C24.382 38.158 24.9633 38.0503 25.4737 38.0417C25.3796 35.3724 26.0618 32.5544 27.2931 30.2153C27.3054 30.192 27.3055 30.1454 27.3018 30.1195C25.3501 32.0159 24.3792 33.9356 23.3258 36.4699C23.0911 37.0345 22.7955 37.6239 22.5861 38.1909L22.5928 38.2428ZM48.3359 46.047L48.5429 45.8456C48.4298 45.7877 48.0188 45.5572 47.9357 45.5265C47.9235 45.7472 47.9931 46.0838 48.2306 46.1485C48.3027 46.1199 48.2871 46.119 48.3359 46.047Z" fill="#F8C52C"/>
<path d="M33.9529 34.1548C35.3699 33.9734 36.9371 34.9633 37.4253 36.3471C37.8137 35.6481 38.0355 35.2253 38.7026 34.759C39.4736 34.2275 40.4164 34.0297 41.3277 34.2081C43.3261 34.6029 44.4635 36.5494 44.0847 38.571C44.5091 38.478 44.8714 38.8222 44.4899 39.1821C44.4052 39.262 44.1192 39.379 44.003 39.4351C43.6502 39.6011 43.3301 39.8325 43.0586 40.1179C42.6634 40.5271 42.4331 40.9559 42.2397 41.4986C42.0948 41.9051 42.1505 42.3248 41.6106 42.2516C41.2339 42.0537 41.3837 41.6997 41.4872 41.3625C40.707 41.5186 39.7312 41.4511 39.0472 41.0067C39.0147 41.8528 38.5672 42.4449 37.7444 42.5417C36.6306 42.6728 35.9922 42.1231 35.8611 40.998C35.5361 41.2118 35.0288 41.364 34.6463 41.4142C33.7393 41.5382 32.8217 41.2858 32.0953 40.7127C31.353 40.1232 30.8733 39.2498 30.7649 38.2907C30.5158 36.1335 31.8689 34.41 33.9529 34.1548ZM36.5627 39.3371C37.2079 38.251 37.1479 37.003 36.4086 35.9821C36.4702 36.1757 36.5137 36.2962 36.5319 36.4984C36.5882 37.1206 36.2043 37.5909 35.6541 37.7858C35.0549 37.998 34.3942 37.5436 34.2156 36.9504C34.1196 36.6264 34.154 36.2761 34.3113 35.9785C34.4507 35.7149 34.6867 35.5199 34.9668 35.437C35.3263 35.328 35.5995 35.3993 35.9453 35.4873C35.4382 35.1133 34.7664 34.8731 34.1388 34.8943C33.4059 34.9216 32.7142 35.2501 32.218 35.8063C30.5063 37.735 31.8523 40.7788 34.3608 40.6694C35.2463 40.6308 36.0803 40.0918 36.5627 39.3371ZM42.8716 39.263C43.0837 39.1009 43.2242 39.005 43.3144 38.7334C43.5749 37.9488 43.4422 36.8149 42.968 36.1438C42.9569 36.1282 42.9454 36.1129 42.9333 36.0981L42.909 36.1257C42.9357 36.2908 43.0031 36.4754 42.9921 36.6365C42.9265 37.5919 41.9014 38.1728 41.1181 37.5966C40.8495 37.4015 40.6683 37.1035 40.615 36.7694C40.5675 36.4517 40.6452 36.1276 40.8309 35.8693C41.2402 35.3003 41.7403 35.3341 42.3342 35.4626C41.7981 35.0684 41.2046 34.8764 40.5476 34.8945C39.7981 34.9331 39.0949 35.2793 38.5948 35.8559C38.1203 36.4025 37.832 37.205 37.875 37.9389C37.9225 38.7135 38.2658 39.4373 38.8298 39.9517C39.4599 40.5198 40.086 40.6924 40.9131 40.6626C42.0653 40.621 42.0855 39.9171 42.8716 39.263ZM37.0002 40.0456C37.1949 40.024 37.3305 40.0211 37.5267 40.0202L37.8752 40.0383C37.7219 39.8644 37.4708 39.3798 37.4017 39.3269C37.2868 39.5633 37.1543 39.8321 37.0002 40.0456Z" fill="#F8C52C"/>
<path d="M34.0976 32.1881C34.6006 32.158 35.1034 32.2358 35.5506 32.4877C35.7031 32.5736 35.775 32.779 35.7106 32.9437C35.5501 33.3535 35.0026 33.0574 34.7136 32.9933C34.1785 32.8714 33.7404 32.9634 33.254 33.1867C32.8779 33.3521 32.6908 33.7262 32.284 33.7613C31.8183 33.8016 31.9277 33.2731 32.1511 33.0475C32.6573 32.5363 33.393 32.2209 34.0976 32.1881Z" fill="#F8C52C"/>
<path d="M40.6193 31.4487C41.1309 31.4188 41.6604 31.5434 42.1691 31.7931C42.4658 31.9387 43.5617 32.5769 42.7204 32.9651C42.531 33.0526 42.1325 32.6606 41.9338 32.524C41.4539 32.2659 40.9179 32.1013 40.3782 32.2328C40.1924 32.2781 39.2762 32.6274 39.235 32.1799C39.1818 31.6013 40.2091 31.4775 40.6193 31.4487Z" fill="#F8C52C"/>
<path d="M17.9231 36.9994C17.8919 37.091 17.8296 37.1145 17.7362 37.0699L16.8035 36.685C16.7233 36.6577 16.6778 36.6038 16.6668 36.5234C16.6049 36.0487 16.4813 35.652 16.296 35.3333C16.1126 35.0088 15.8706 34.7347 15.5699 34.5108C15.2692 34.287 14.8814 34.075 14.4065 33.8748L12.956 33.2656C12.9121 33.2443 12.8836 33.2154 12.8705 33.179C12.8535 33.1349 12.8529 33.09 12.8685 33.0442L13.3483 31.6358C13.3698 31.5729 13.4091 31.5511 13.4664 31.5706C13.4835 31.5765 13.5064 31.5939 13.5349 31.6227L13.9645 32.1621L14.8371 32.5264C15.27 32.7187 15.6426 32.9191 15.9549 33.1277L18.3716 32.0822C18.4484 32.0445 18.5068 32.0324 18.5469 32.0461C18.5812 32.0578 18.6097 32.0867 18.6324 32.1327L19.1083 33.0424C19.1347 33.0961 19.1402 33.1459 19.1245 33.1917C19.1089 33.2375 19.0762 33.2679 19.0264 33.2829L16.9874 34.0354C17.5907 34.7776 17.9066 35.735 17.9352 36.9076L17.9231 36.9994ZM16.5128 32.0527C16.4796 32.15 16.4163 32.1764 16.3229 32.1318L15.5304 31.8138C15.4751 31.7886 15.4389 31.7635 15.4218 31.7385C15.4048 31.7135 15.405 31.6753 15.4226 31.6238L15.9317 30.1296L13.9862 29.3134C13.8871 29.2668 13.8541 29.1949 13.8872 29.0976L14.212 28.1444C14.2491 28.0356 14.3172 28.0045 14.4163 28.0511L21.2968 30.9511C21.3902 30.9958 21.4194 31.0696 21.3842 31.1726L21.0624 32.1172C21.0254 32.226 20.9601 32.2581 20.8667 32.2135L17.0102 30.5929L16.5128 32.0527ZM21.1332 24.3336C20.8811 24.5505 20.6483 24.6509 20.4351 24.6349C20.2219 24.6188 20.018 24.4791 19.8233 24.2157L18.9584 23.0571C18.8966 22.9666 18.9047 22.8879 18.9826 22.8209L22.229 20.0287L21.9549 19.6543L18.6947 22.4583C18.6076 22.5332 18.537 22.53 18.4831 22.4488L18.0216 21.8287C17.99 21.792 17.9778 21.7546 17.985 21.7165C17.9927 21.6699 18.0173 21.6289 18.0585 21.5934L22.4398 17.8252C22.4994 17.7739 22.5529 17.7758 22.6002 17.8308C22.616 17.8492 22.6269 17.8757 22.6328 17.9105L22.7578 18.4731L23.7095 19.7605C23.7522 19.8195 23.7691 19.8808 23.76 19.9444C23.747 20.0035 23.7107 20.0587 23.6511 20.1099L20.4528 22.8607L20.6579 23.127L20.6697 23.1408C20.6934 23.1683 20.7246 23.1813 20.7633 23.18C20.802 23.1786 20.8351 23.1661 20.8626 23.1424L24.3222 20.1669C24.3589 20.1353 24.394 20.1251 24.4275 20.1362C24.4616 20.1388 24.4833 20.164 24.4925 20.2118L24.6673 21.1385C24.6772 21.1778 24.6717 21.2224 24.6508 21.2723C24.6305 21.3137 24.5998 21.3521 24.5585 21.3876L21.1332 24.3336ZM23.2327 27.039C23.1548 27.106 23.0823 27.1006 23.0153 27.0226L21.9698 25.6123L20.9656 26.476C20.9244 26.5115 20.8821 26.5319 20.8388 26.5372C20.8001 26.5386 20.7693 26.5213 20.7462 26.4853L20.2433 25.817C20.1972 25.7449 20.2109 25.6773 20.2843 25.6142L25.6697 20.9823C25.6927 20.9626 25.7169 20.9537 25.7425 20.9556C25.7727 20.9536 25.7956 20.9617 25.8114 20.9801C25.8233 20.9938 25.8321 21.0181 25.8381 21.0529L26.0148 21.9539C26.0143 22.074 25.982 22.1616 25.9178 22.2168L25.2369 22.8024L26.2823 24.2127C26.3493 24.2907 26.3393 24.3671 26.2522 24.442L25.4268 25.1519C25.3489 25.2189 25.2764 25.2135 25.2093 25.1355L24.1639 23.7253L23.0428 24.6895L24.0882 26.0998C24.1553 26.1777 24.1452 26.2542 24.0581 26.3291L23.2327 27.039ZM34.213 20.6804C34.1714 20.6881 34.1299 20.6805 34.0887 20.6574C34.0535 20.6332 34.0325 20.6033 34.0259 20.5676L33.8874 19.3291L29.6511 20.1185C29.5976 20.1285 29.5537 20.1244 29.5196 20.1061C29.4914 20.0868 29.4793 20.0552 29.4835 20.0113L29.4101 19.3698C29.4053 19.2784 29.4535 19.2233 29.5546 19.2045L34.9413 18.2007C35.0543 18.1796 35.1132 18.2148 35.1179 18.3062L35.3475 20.3305C35.3541 20.3662 35.3418 20.3993 35.3106 20.4297C35.2864 20.465 35.2535 20.4865 35.2118 20.4942L34.213 20.6804ZM28.774 19.0269C28.6551 19.0491 28.589 19.0245 28.5757 18.9531L28.499 18.2938C28.4905 18.2154 28.5368 18.1668 28.6379 18.1479L30.2878 17.8405L30.2608 17.5964C29.8335 17.6145 29.4979 17.5632 29.2539 17.4425C29.01 17.3219 28.8642 17.1337 28.8165 16.8781C28.7523 16.5332 28.8808 16.2324 29.2021 15.9757C29.5234 15.719 30.0199 15.528 30.6918 15.4028C31.3042 15.2887 31.784 15.2885 32.1313 15.4022C32.4845 15.5148 32.6888 15.7197 32.7442 16.017C32.7985 16.3083 32.7268 16.5678 32.5293 16.7953C32.3377 17.0217 32.0185 17.2073 31.5718 17.3521L31.5972 17.5873C32.4764 17.3865 33.1543 17.1618 33.6309 16.913L33.1689 12.9479C33.1609 12.8387 33.2074 12.7746 33.3084 12.7558L34.2984 12.5713C34.4054 12.5514 34.463 12.596 34.471 12.7053L34.7056 14.7564L35.9006 14.5337C35.9482 14.5248 35.9891 14.5295 36.0232 14.5477C36.0574 14.566 36.0783 14.5959 36.0861 14.6375C36.0916 14.6673 36.0883 14.6987 36.076 14.7317L35.8182 15.5272C35.7835 15.6383 35.7067 15.7049 35.5878 15.727L34.8386 15.8666L35.0461 17.6736C35.0542 17.7828 35.0107 17.8463 34.9155 17.8641L33.9256 18.0485C33.8721 18.0585 33.8277 18.0514 33.7924 18.0272C33.7631 18.0019 33.747 17.9649 33.744 17.9162L33.7314 17.7986C33.0961 18.12 32.2493 18.3793 31.1909 18.5766L28.774 19.0269ZM30.8513 16.8034C31.101 16.7569 31.2828 16.6923 31.3965 16.6096C31.5103 16.5268 31.5583 16.4379 31.5406 16.3428C31.4996 16.1228 31.2472 16.056 30.7835 16.1424C30.2424 16.2432 29.9941 16.4126 30.0384 16.6504C30.055 16.7396 30.1277 16.7998 30.2566 16.8312C30.3915 16.8614 30.5897 16.8522 30.8513 16.8034ZM28.4702 15.6138C28.4167 15.6237 28.3729 15.6196 28.3387 15.6013C28.3094 15.576 28.2933 15.5391 28.2903 15.4904L28.2263 14.9486C28.2234 14.9 28.2292 14.865 28.2437 14.8439C28.263 14.8157 28.2965 14.7971 28.3441 14.7883L32.8479 13.949C32.8836 13.9424 32.9155 13.9487 32.9437 13.9681C32.9708 13.9815 32.9872 14.003 32.9927 14.0328C32.9971 14.0565 32.9932 14.085 32.9809 14.118L32.7228 14.6644C32.6584 14.781 32.5757 14.8487 32.4746 14.8676L28.4702 15.6138ZM29.3037 14.3418C29.2026 14.3607 29.1432 14.3225 29.1255 14.2274L29.067 13.6661C29.0515 13.5829 29.0913 13.5324 29.1864 13.5147L31.862 13.0161C31.9036 13.0084 31.935 13.0117 31.9562 13.0263C31.9833 13.0397 31.9996 13.0612 32.0051 13.091C32.0085 13.1088 32.004 13.1342 31.9917 13.1673L31.7118 13.7454C31.6641 13.8528 31.5808 13.9175 31.4619 13.9397L29.3037 14.3418ZM41.931 17.1244C41.2989 16.8983 40.8719 16.5657 40.65 16.1267C40.4301 15.6819 40.426 15.1634 40.6379 14.5711C40.8986 13.8422 41.2987 13.343 41.8383 13.0735C42.3779 12.804 43.0036 12.7966 43.7154 13.0512L45.6203 13.7325C45.6488 13.7427 45.6685 13.7594 45.6795 13.7826C45.6962 13.8078 45.6994 13.8346 45.6892 13.8631C45.679 13.8916 45.6526 13.9207 45.6099 13.9503L45.0831 14.2918C45.2049 14.6694 45.1773 15.106 45.0001 15.6014C44.7394 16.3303 44.3392 16.8295 43.7996 17.099C43.2657 17.3705 42.6429 17.379 41.931 17.1244ZM41.071 20.1215C40.4788 19.9097 40.0943 19.6469 39.9174 19.3332C39.7443 19.0272 39.756 18.6171 39.9528 18.1029C39.9813 18.0232 40.0458 17.8697 40.1464 17.6423C40.2527 17.417 40.336 17.238 40.3963 17.1054C40.424 17.0639 40.4484 17.0405 40.4695 17.0352C40.4927 17.0243 40.5328 17.029 40.5897 17.0493L41.6575 17.4312C41.76 17.4679 41.7874 17.5259 41.7398 17.6052C41.6918 17.7036 41.5741 17.9698 41.3867 18.4038C41.3301 18.5442 41.3028 18.6564 41.3048 18.7407C41.3125 18.8269 41.3586 18.9044 41.4432 18.9732C41.5278 19.042 41.6698 19.1121 41.8691 19.1834C42.3987 19.3728 43.067 19.5604 43.8741 19.7463C44.6832 19.9265 45.234 20.0207 45.5265 20.029L45.6351 20.0486C45.6693 20.0608 45.688 20.0803 45.6913 20.1072C45.6945 20.134 45.6831 20.1749 45.657 20.2298L45.376 20.8808C45.3561 20.9187 45.3229 20.9486 45.2765 20.9705C45.2338 21.0002 45.1866 21.0154 45.1349 21.0162C44.783 21.0124 44.1777 20.9179 43.3189 20.7328C42.4638 20.5555 41.7146 20.3517 41.071 20.1215ZM42.3599 16.1409C42.7073 16.2651 43.0087 16.2573 43.2643 16.1175C43.5255 15.9797 43.7274 15.7115 43.87 15.3128C43.978 15.011 43.9807 14.7519 43.8783 14.5354C43.7816 14.3209 43.5823 14.1598 43.2805 14.0518C42.9616 13.9377 42.6733 13.9535 42.4157 14.099C42.1582 14.2445 41.9611 14.5081 41.8247 14.8896C41.7147 15.1971 41.708 15.4581 41.8048 15.6726C41.9015 15.887 42.0865 16.0431 42.3599 16.1409ZM44.7568 19.1371C44.6486 19.0984 44.6175 19.0327 44.6635 18.9399L46.7857 14.1108C46.8224 14.0083 46.892 13.9753 46.9945 14.012L47.9427 14.3511C48.0395 14.3858 48.0695 14.4543 48.0329 14.5568L45.9107 19.386C45.8646 19.4787 45.7961 19.5088 45.705 19.4762L44.7568 19.1371ZM49.5798 24.403C49.2455 24.0045 49.0063 23.6723 48.8622 23.4064C48.7181 23.1405 48.6565 22.9119 48.6776 22.7206C48.6979 22.5377 48.7926 22.3636 48.9616 22.1981L49.0948 22.0745C49.3126 21.8918 49.5888 21.7035 49.9235 21.5096C49.9876 21.4637 50.0546 21.4825 50.1246 21.5659L53.0923 25.1036L53.3948 24.8854L50.4446 21.3685C50.3746 21.2851 50.3832 21.2108 50.4705 21.1454L51.0001 20.7604C51.0913 20.6997 51.1719 20.7111 51.2418 20.7945L54.9792 25.2496C55.053 25.3377 55.0443 25.412 54.9532 25.4727L53.42 26.5812C53.3188 26.6582 53.2274 26.648 53.1458 26.5507L50.1664 22.9991L50.0494 23.0855C49.9721 23.1345 49.9484 23.2097 49.9781 23.311C50.0118 23.417 50.1238 23.5835 50.3143 23.8106C50.9051 24.5149 51.4228 25.1226 51.8674 25.6338C52.312 26.145 52.701 26.5568 53.0342 26.8694L53.0808 26.925C53.1158 26.9667 53.1345 26.9984 53.1369 27.02C53.1346 27.0456 53.1154 27.0697 53.079 27.0922L52.5773 27.454C52.5541 27.4734 52.5193 27.4789 52.4728 27.4706C52.4255 27.4707 52.3818 27.4561 52.3414 27.4269C51.7364 26.8844 50.8159 25.8765 49.5798 24.403ZM50.9722 20.0496C50.8945 19.957 50.8927 19.8795 50.9668 19.8173L51.5509 19.3984C51.6282 19.3494 51.6999 19.3643 51.7659 19.443L52.1857 19.9434L53.6991 18.8397L53.3318 18.4018C53.2657 18.323 53.2674 18.2545 53.3369 18.1962L53.9488 17.754C54.0261 17.7049 54.0977 17.7198 54.1638 17.7986L57.2481 21.4753C57.2753 21.5077 57.2898 21.539 57.2914 21.5692C57.2931 21.5994 57.2823 21.6242 57.2591 21.6437C57.2406 21.6592 57.2139 21.6698 57.1791 21.6753L56.3816 21.8115C56.3289 21.824 56.2759 21.8172 56.2224 21.7911C56.1727 21.7696 56.1265 21.7333 56.0838 21.6824L55.9263 21.4947L54.5369 22.5063C55.0037 22.9121 55.3836 23.1815 55.6767 23.3145L57.6374 21.8829C57.7155 21.8253 57.7894 21.8383 57.8594 21.9217L58.5066 22.6931C58.5727 22.7719 58.5667 22.8401 58.4887 22.8976L55.4827 25.0877C55.4008 25.1406 55.3288 25.13 55.2666 25.0559L54.6194 24.2844C54.5456 24.1963 54.5496 24.1259 54.6315 24.0729L54.8725 23.8944C54.5631 23.7514 54.1843 23.4928 53.7363 23.1187C53.2968 22.7454 52.8846 22.3293 52.4998 21.8706L50.9722 20.0496ZM53.3588 21.3277L53.5348 21.5234L55.0343 20.4313L54.5912 19.9031L53.0847 21.001L53.3588 21.3277ZM58.1459 32.6299C58.0801 32.372 58.0268 32.1016 57.9858 31.8187L56.913 32.0175L57.3278 33.6437L58.4094 33.4427C58.31 33.1997 58.2221 32.9288 58.1459 32.6299ZM55.1217 29.6563C55.0933 29.5449 55.1326 29.4787 55.2396 29.4577L56.0618 29.3041C56.1644 29.2904 56.2277 29.3305 56.2516 29.4243L56.5834 30.7253L58.0673 30.4498C58.2753 29.7725 58.7485 29.3398 59.4869 29.1514C60.2898 28.9466 60.9798 29.0702 61.557 29.5222C62.1342 29.9742 62.5573 30.7276 62.8263 31.7825L63.4967 34.4109C63.5132 34.4753 63.495 34.5143 63.4423 34.5277C63.4188 34.5337 63.3799 34.528 63.3256 34.5107L62.7853 34.2646C62.5383 34.7645 62.1013 35.0945 61.4743 35.2544C60.5249 35.4966 59.748 35.3015 59.1436 34.6692L57.6574 34.9359L58.0072 36.3073C58.0251 36.3776 58.0019 36.421 57.9374 36.4374C57.914 36.4434 57.8824 36.4421 57.8428 36.4335L56.9571 36.1912C56.8352 36.1537 56.7615 36.0851 56.7361 35.9855L55.1217 29.6563ZM59.1923 32.4379C59.3478 33.0474 59.5838 33.4709 59.9003 33.7085C60.2227 33.9446 60.5919 34.0096 61.008 33.9034C61.7288 33.7196 61.9502 33.0826 61.6722 31.9926C61.3642 30.7854 60.7795 30.2916 59.9181 30.5114C59.5606 30.6025 59.3137 30.8091 59.1773 31.131C59.0468 31.4514 59.0518 31.887 59.1923 32.4379Z" fill="#F8C52C"/>
<path d="M52.4337 49.7907C52.9187 49.2671 53.4299 48.9245 53.9672 48.7627C54.5046 48.601 55.0264 48.5939 55.5328 48.7414C56.0395 48.8975 56.508 49.1749 56.9384 49.5736C57.4042 50.0051 57.7239 50.5322 57.8975 51.1547C58.0711 51.7771 58.0825 52.4101 57.9316 53.0535C57.7807 53.697 57.4772 54.2649 57.0209 54.7574C56.7291 55.0724 56.4249 55.343 56.1083 55.5691C55.7876 55.7996 55.4917 55.9543 55.2209 56.0331C55.1531 56.0528 55.0971 56.0421 55.0527 56.001C55.035 55.9846 55.0166 55.951 54.9975 55.9004L54.6684 55.0143C54.6486 54.9465 54.6573 54.8927 54.6943 54.8528C54.7189 54.8262 54.7503 54.8057 54.7882 54.7914C54.987 54.7282 55.2029 54.6108 55.436 54.4393C55.6735 54.2718 55.8951 54.0772 56.1006 53.8554C56.3677 53.567 56.543 53.2264 56.6264 52.8338C56.7058 52.4456 56.6865 52.0526 56.5685 51.6548C56.4509 51.2656 56.2346 50.925 55.9196 50.6332C55.6712 50.4031 55.3869 50.2427 55.0667 50.1523C54.7466 50.0618 54.4317 50.0546 54.1222 50.1306C53.8127 50.2066 53.5429 50.3689 53.3127 50.6173C53.0866 50.8613 52.901 51.1552 52.7558 51.4988C52.6109 51.851 52.5282 52.2072 52.5077 52.5675C52.5053 52.6147 52.4896 52.6538 52.4609 52.6849C52.4157 52.7337 52.3577 52.7295 52.2871 52.6723L51.5404 52.1166L51.5071 52.0858C51.4539 52.0365 51.428 51.9754 51.4295 51.9026C51.4475 51.5895 51.5351 51.2502 51.6923 50.8847C51.8496 50.5192 52.0967 50.1545 52.4337 49.7907ZM48.8753 53.862C48.9319 53.8406 48.9807 53.8416 49.0218 53.8649C49.0629 53.8882 49.0885 53.9303 49.0985 53.9911L50.3288 60.1103C50.3502 60.2186 50.31 60.2919 50.2081 60.3303L49.2149 60.7047C49.1583 60.726 49.1095 60.725 49.0684 60.7017C49.0273 60.6784 48.9989 60.6374 48.9832 60.5787L48.5056 58.1798L46.0862 59.0918L46.5766 61.5246C46.5981 61.6328 46.5578 61.7062 46.456 61.7446L45.1317 62.2437C45.0921 62.2587 45.0567 62.2591 45.0255 62.245C44.9887 62.233 44.9639 62.21 44.9511 62.1761C44.9361 62.1365 44.9371 62.0876 44.954 62.0295L45.1357 61.4569L44.0093 55.8706C43.9878 55.7623 44.0281 55.689 44.1299 55.6506L45.1231 55.2762C45.1797 55.2549 45.2286 55.2559 45.2697 55.2791C45.3108 55.3024 45.3363 55.3445 45.3463 55.4054L45.8207 57.7957L48.2486 56.8806L47.7614 54.4563C47.74 54.348 47.7802 54.2747 47.8821 54.2363L48.8753 53.862ZM40.3887 57.0946C40.4489 57.0997 40.4926 57.1215 40.5197 57.1602C40.5468 57.1989 40.5518 57.2479 40.5347 57.3071L39.0298 63.317C39.0026 63.424 38.9348 63.4729 38.8263 63.4638L34.4237 63.095C34.3212 63.0864 34.2733 63.0429 34.2798 62.9646C34.2829 62.9284 34.2977 62.8963 34.3243 62.8682L34.9809 61.9855C35.0357 61.9112 35.1113 61.8781 35.2078 61.8861L37.8927 62.1111L38.2203 60.8094L35.5986 60.5897C35.5383 60.5847 35.4946 60.5628 35.4675 60.5241C35.4404 60.4854 35.4354 60.4365 35.4525 60.3772L35.6797 59.5132C35.7068 59.4062 35.7747 59.3573 35.8832 59.3663L38.532 59.5883L38.8723 58.2421L35.7896 57.9838C35.7293 57.9788 35.6856 57.9569 35.6585 57.9182C35.6314 57.8795 35.6264 57.8306 35.6435 57.7713L35.8639 56.8794C35.8911 56.7724 35.9619 56.7237 36.0764 56.7333L40.3887 57.0946ZM29.5118 54.724C30.1283 55.0834 30.5741 55.5077 30.8489 55.9969C31.1238 56.4862 31.2443 56.994 31.2106 57.5203C31.1685 58.0488 30.9998 58.5665 30.7043 59.0733C30.3845 59.622 29.9398 60.0488 29.37 60.3537C28.8002 60.6586 28.1849 60.8075 27.5241 60.8003C26.8632 60.7932 26.2428 60.6205 25.6628 60.2825C25.2918 60.0662 24.9615 59.8282 24.6719 59.5684C24.3771 59.3056 24.1618 59.0505 24.0258 58.8033C23.9919 58.7415 23.9901 58.6844 24.0206 58.6322C24.0327 58.6113 24.0615 58.586 24.1067 58.5564L24.9 58.0422C24.9618 58.0083 25.0162 58.005 25.0632 58.0324C25.0946 58.0507 25.1214 58.0768 25.1436 58.1107C25.2486 58.2909 25.4101 58.4761 25.6283 58.6663C25.8434 58.8617 26.0816 59.0355 26.3429 59.1878C26.6825 59.3858 27.053 59.4827 27.4544 59.4787C27.8506 59.4716 28.2299 59.3672 28.5925 59.1655C28.9468 58.966 29.2321 58.6807 29.4483 58.3097C29.6189 58.0171 29.7135 57.7047 29.7321 57.3726C29.7507 57.0404 29.6892 56.7315 29.5476 56.446C29.406 56.1605 29.1889 55.9324 28.8963 55.7619C28.6089 55.5943 28.2817 55.4771 27.9147 55.4102C27.5394 55.3455 27.1737 55.3423 26.8177 55.4008C26.7711 55.4086 26.7295 55.4019 26.6929 55.3806C26.6354 55.3471 26.6269 55.2896 26.6674 55.2082L27.0472 54.3585L27.07 54.3193C27.1066 54.2566 27.1605 54.2181 27.2319 54.2037C27.5414 54.1531 27.8917 54.1647 28.2826 54.2386C28.6736 54.3124 29.0833 54.4743 29.5118 54.724ZM24.541 51.9318C24.5786 51.9791 24.5927 52.0259 24.5832 52.0721C24.5736 52.1184 24.5414 52.1556 24.4866 52.1838L19.0821 55.2129C18.9857 55.2665 18.9035 55.2507 18.8357 55.1656L18.1744 54.3354C18.1367 54.2881 18.1226 54.2413 18.1322 54.195C18.1417 54.1487 18.1739 54.1115 18.2288 54.0833L20.5863 52.7621L16.6627 52.2919C16.5777 52.2823 16.5089 52.2444 16.4561 52.1782L15.5405 51.0286C15.5103 50.9908 15.4948 50.9567 15.4939 50.9265C15.4893 50.8915 15.4988 50.8646 15.5224 50.8458C15.5555 50.8194 15.6018 50.8096 15.6613 50.8163L19.3623 51.3711L20.9511 47.7743C20.9681 47.7375 20.9861 47.7116 21.0051 47.6965C21.0713 47.6438 21.1383 47.66 21.2062 47.7451L21.9918 48.7315C22.0521 48.8071 22.06 48.8898 22.0154 48.9794L20.6793 51.6558L22.219 51.856L23.6332 51.0542C23.7297 51.0006 23.8137 51.0187 23.8853 51.1086L24.541 51.9318Z" fill="#F8C52C"/>
</svg>
