<svg width="80" height="60" viewBox="0 0 80 60" fill="none" xmlns="http://www.w3.org/2000/svg">
<g clip-path="url(#clip0_60_2018)">
<path fill-rule="evenodd" clip-rule="evenodd" d="M0 0H80V6.6625H0V0Z" fill="#0D5EAF"/>
<path fill-rule="evenodd" clip-rule="evenodd" d="M0 6.66248H80V13.3375H0V6.66248Z" fill="white"/>
<path fill-rule="evenodd" clip-rule="evenodd" d="M0 13.3375H80V20H0V13.3375Z" fill="#0D5EAF"/>
<path fill-rule="evenodd" clip-rule="evenodd" d="M0 20H80V26.6625H0V20Z" fill="white"/>
<path d="M0 0H33.3375V33.3375H0V0Z" fill="#0D5EAF"/>
<path fill-rule="evenodd" clip-rule="evenodd" d="M0 26.6625H80V33.3375H0V26.6625Z" fill="#0D5EAF"/>
<path fill-rule="evenodd" clip-rule="evenodd" d="M0 33.3375H80V40H0V33.3375Z" fill="white"/>
<path fill-rule="evenodd" clip-rule="evenodd" d="M0 40H80V46.6625H0V40Z" fill="#0D5EAF"/>
<path fill-rule="evenodd" clip-rule="evenodd" d="M0 46.6625H80V53.3375H0V46.6625Z" fill="white"/>
<path fill-rule="evenodd" clip-rule="evenodd" d="M13.3374 0H19.9999V33.3375H13.3374V0Z" fill="white"/>
<path fill-rule="evenodd" clip-rule="evenodd" d="M0 13.3375H33.3375V20H0V13.3375Z" fill="white"/>
<path d="M0 53.3375H80V60H0V53.3375Z" fill="#0D5EAF"/>
</g>
<defs>
<clipPath id="clip0_60_2018">
<rect width="80" height="60" fill="white"/>
</clipPath>
</defs>
</svg>
