<svg width="80" height="60" viewBox="0 0 80 60" fill="none" xmlns="http://www.w3.org/2000/svg">
<g clip-path="url(#clip0_60_142)">
<mask id="mask0_60_142" style="mask-type:luminance" maskUnits="userSpaceOnUse" x="0" y="0" width="80" height="60">
<path d="M0 0H80V60H0V0Z" fill="white"/>
</mask>
<g mask="url(#mask0_60_142)">
<path d="M0 0H90V60H0V0Z" fill="#FF0000"/>
<path d="M0 0H45V30H0V0Z" fill="#000095"/>
<path d="M19.25 15.8625L18.9375 17.0625L20.1125 17.3875L19.8875 16.5L19.25 15.8625ZM25.1125 16.5L24.8875 17.3875L26.0625 17.0625L25.75 15.8625L25.1125 16.5ZM19.8875 13.5L19.25 14.1375L19.4875 15L19.8875 13.5Z" fill="white"/>
<path d="M19.4875 15L19.25 15.8625L19.8875 16.5L19.4875 15Z" fill="white"/>
<path d="M19.25 14.1375L18.3875 15L19.25 15.8625L19.4874 15L19.25 14.1375ZM21 17.6125L21.6375 18.25L22.5 18.0125L21 17.6125ZM23.3624 18.25L24.5625 18.5625L24.8875 17.3875L24 17.6125L23.3624 18.25Z" fill="white"/>
<path d="M24 17.6125L24.8876 17.3875L25.1125 16.5L24 17.6125ZM20.1125 17.3875L20.4375 18.5625L21.6376 18.25L21 17.6125L20.1125 17.3875ZM22.5 18.0125L23.3625 18.25L24 17.6125L22.5 18.0125Z" fill="white"/>
<path d="M21.6375 18.25L22.5 19.1125L23.3625 18.25L22.5 18.0125L21.6375 18.25ZM20.1125 12.6125L18.9375 12.9375L19.25 14.1375L19.8875 13.5L20.1125 12.6125ZM19.8875 16.5L20.1125 17.3875L21 17.6125L19.8875 16.5ZM25.5125 15L25.75 14.1375L25.1125 13.5L25.5125 15Z" fill="white"/>
<path d="M21 12.3875L20.1124 12.6125L19.8875 13.5L21 12.3875ZM25.1124 13.5L24.8875 12.6125L24 12.3875L25.1124 13.5ZM25.75 15.8625L26.6124 15L25.75 14.1375L25.5125 15L25.75 15.8625Z" fill="white"/>
<path d="M25.1125 13.5L24 12.3875L22.5 11.9875L21 12.3875L19.8876 13.5L19.4875 15L19.8876 16.5L21 17.6125L22.5 18.0125L24 17.6125L25.1125 16.5L25.5126 15L25.1125 13.5Z" fill="white"/>
<path d="M25.1125 16.5L25.75 15.8625L25.5126 15L25.1125 16.5ZM25.75 14.1375L26.0625 12.9375L24.8876 12.6125L25.1125 13.5L25.75 14.1375ZM24.8876 12.6125L24.5625 11.4375L23.3625 11.75L24 12.3875L24.8876 12.6125ZM21.6376 11.75L20.4375 11.4375L20.1125 12.6125L21 12.3875L21.6376 11.75ZM22.5 11.9875L21.6376 11.75L21 12.3875L22.5 11.9875Z" fill="white"/>
<path d="M23.3624 11.75L22.5 10.8875L21.6375 11.75L22.5 11.9875L23.3624 11.75Z" fill="white"/>
<path d="M24 12.3875L23.3624 11.75L22.5 11.9875L24 12.3875ZM21.6375 18.25L20.4375 18.5625L21 20.6375L22.5 19.1125L21.6375 18.25ZM21 20.6375L22.5 26.25L24 20.6375L22.5 19.1125L21 20.6375ZM20.1124 17.3875L18.9375 17.0625L18.3875 19.1125L20.4375 18.5625L20.1124 17.3875Z" fill="white"/>
<path d="M18.3875 19.1125L16.8875 24.75L21 20.6375L20.4375 18.5625L18.3875 19.1125ZM16.8875 16.5L12.75 20.6375L18.3875 19.1125L18.9375 17.0625L16.8875 16.5Z" fill="white"/>
<path d="M19.25 15.8625L18.3875 15L16.8875 16.5L18.9375 17.0625L19.25 15.8625ZM19.25 14.1375L18.9375 12.9375L16.8875 13.5L18.3875 15L19.25 14.1375Z" fill="white"/>
<path d="M16.8875 13.5L11.25 15L16.8875 16.5L18.3875 15L16.8875 13.5ZM28.1375 16.5L26.0625 17.0625L26.6125 19.1125L32.25 20.6375L28.1375 16.5Z" fill="white"/>
<path d="M24.8875 17.3875L24.5625 18.5625L26.6125 19.1125L26.0625 17.0625L24.8875 17.3875ZM23.3625 18.25L22.5 19.1125L24 20.6375L24.5625 18.5625L23.3625 18.25ZM25.75 15.8625L26.0625 17.0625L28.1375 16.5L26.6125 15L25.75 15.8625Z" fill="white"/>
<path d="M24 20.6375L28.1375 24.75L26.6125 19.1125L24.5625 18.5625L24 20.6375ZM24.8875 12.6125L26.0625 12.9375L26.6125 10.8875L24.5625 11.4375L24.8875 12.6125Z" fill="white"/>
<path d="M28.1375 13.5L32.25 9.3875L26.6125 10.8875L26.0625 12.9375L28.1375 13.5ZM26.6125 10.8875L28.1375 5.25L24 9.3875L24.5625 11.4375L26.6125 10.8875ZM28.1375 16.5L33.75 15L28.1375 13.5L26.6125 15L28.1375 16.5Z" fill="white"/>
<path d="M25.75 14.1375L26.6124 15L28.1375 13.5L26.0625 12.9375L25.75 14.1375ZM21 9.3875L16.8875 5.25L18.3875 10.8875L20.4375 11.4375L21 9.3875Z" fill="white"/>
<path d="M20.1124 12.6125L20.4375 11.4375L18.3875 10.8875L18.9375 12.9375L20.1124 12.6125Z" fill="white"/>
<path d="M18.3875 10.8875L12.75 9.38745L16.8875 13.5L18.9375 12.9375L18.3875 10.8875ZM23.3625 11.75L24.5625 11.4375L24 9.38745L22.5 10.8875L23.3625 11.75Z" fill="white"/>
<path d="M24 9.3875L22.5 3.75L21 9.3875L22.5 10.8875L24 9.3875Z" fill="white"/>
<path d="M21.6375 11.75L22.5 10.8875L21 9.38745L20.4375 11.4375L21.6375 11.75Z" fill="white"/>
<path d="M22.5 21.3875C26.0278 21.3875 28.8876 18.5278 28.8876 15C28.8876 11.4723 26.0278 8.61255 22.5 8.61255C18.9723 8.61255 16.1125 11.4723 16.1125 15C16.1125 18.5278 18.9723 21.3875 22.5 21.3875Z" fill="#000095"/>
<path d="M22.5 20.6375C25.6136 20.6375 28.1376 18.1136 28.1376 15C28.1376 11.8865 25.6136 9.36255 22.5 9.36255C19.3865 9.36255 16.8625 11.8865 16.8625 15C16.8625 18.1136 19.3865 20.6375 22.5 20.6375Z" fill="white"/>
</g>
</g>
<defs>
<clipPath id="clip0_60_142">
<rect width="80" height="60" fill="white"/>
</clipPath>
</defs>
</svg>
