<svg width="240" height="93" viewBox="0 0 240 93" fill="none" xmlns="http://www.w3.org/2000/svg">
<path d="M0 92H240" stroke="#A1ADCC"/>
<path d="M158.704 62.1878C157.201 62.0268 155.655 62.1242 154.201 61.9337C145.73 60.8244 141.254 54.2909 142.229 45.8863C142.751 41.3866 144.574 38.2748 146.401 34.2808C149.613 27.3515 153.308 19.8021 159.401 14.9888C162.008 12.9293 164.954 10.7341 167.623 8.77478C172.539 5.16543 178.744 2.76529 184.769 2.03608C188.775 1.52623 190.057 1.48721 194.035 1.87507C206.239 3.06504 218.835 10.7161 226.335 20.3964C227.812 22.302 229.205 24.3836 230.506 26.5224C234.659 33.3485 239.201 41.544 238.5 49.8184C238.137 53.4227 236.582 56.8456 233.755 59.1169C231.068 61.2766 227.808 61.9703 224.444 61.6548C221.876 61.4139 222.284 61.0835 220.493 62.9318C221.029 64.1167 221.199 65.1703 220.93 66.4669C223.3 67.1467 223.955 68.6046 223.323 70.9871C222.68 73.4074 220.793 75.1233 219.434 77.1171C219.056 77.6669 218.634 79.2335 218.37 79.9142C216.62 84.4157 215.261 87.0586 210.449 88.2183C210.477 89.3574 210.549 90.8975 210.375 91.9999H208.444H170.179H168.222C168.063 91.1832 168.115 89.1953 168.126 88.2919C166.809 87.9616 165.573 87.5751 164.507 86.769C162.608 85.332 160.771 82.4266 160.19 80.1392C159.5 77.4242 158.987 76.6268 157.152 74.6008C155.868 73.1828 154.485 70.6236 155.076 68.674C155.384 67.4602 156.439 66.7259 157.611 66.4972C157.352 65.1583 157.373 64.0855 158.175 62.8884C158.341 62.6466 158.517 62.4128 158.704 62.1878Z" fill="#1F3980"/>
<path d="M170.154 88.2588C173.165 87.5917 175.045 86.4776 176.752 83.8879C177.177 83.2163 177.741 81.9865 176.67 81.5915C175.699 81.2062 175.223 82.0821 174.852 82.8075C173.929 84.6134 171.664 86.1087 169.675 86.2715C165.536 86.6102 162.886 82.6691 162 79.0559C161.757 78.0633 161.385 77.0263 160.913 76.1401C159.675 74.1327 157.711 72.6346 157.026 70.2923C156.517 68.5544 157.278 68.3064 158.75 68.8776C159.244 69.0691 159.915 69.33 160.266 68.7896C160.432 68.5486 160.477 68.2653 160.418 67.967C160.051 66.8113 158.325 64.253 160.442 63.767C162.082 63.4339 162.177 66.4401 163.681 66.2319C165.748 65.9456 163.01 62.7818 164.759 62.2265C166.234 61.7582 167.358 64.1241 167.894 65.1575C168.266 65.8367 168.538 66.8079 169.519 66.5709C170.265 66.3904 171.592 65.1059 172.352 65.6481C174.122 66.9101 172.217 70.0212 171.802 71.5958C172.209 72.7506 172.96 73.8608 173.565 74.936C174.003 75.7141 174.72 77.7269 175.309 78.2439C175.876 78.4617 176.529 78.2761 176.683 77.685C176.953 76.648 175.786 74.6942 175.312 73.7944C174.932 73.074 174.53 72.366 174.107 71.6714C175.943 72.2087 177.921 72.8527 179.783 73.2475C185.925 74.5498 192.326 74.6792 198.525 73.7202C200.092 73.476 202.78 72.983 204.122 72.2756C203.373 73.6539 202.628 74.9233 202.045 76.3655C201.217 78.4162 203.281 79.0567 203.686 77.8062C204.321 75.8452 206.062 73.546 206.712 71.7098C206.324 70.1647 205.24 67.6137 205.825 66.0603C205.901 65.8579 206.247 65.5544 206.426 65.5269C208.218 65.25 209.128 68.0165 210.44 65.5399C210.968 64.5442 211.924 62.6642 213.053 62.2661C213.572 62.0766 214.333 62.4289 214.447 63.0295C214.628 63.986 213.417 65.3045 214.264 66.0727C214.446 66.214 215.024 66.3761 215.195 66.284C216.125 65.7828 217.117 63.18 218.601 63.7589C218.879 63.9028 219.19 64.5121 219.216 64.7741C219.341 66.0311 218.569 67.0751 218.009 68.0958C217.826 68.4285 218.515 69.41 219.184 69.2123C219.867 69.0103 221.319 67.9562 221.648 69.2989C221.775 70.5427 220.638 72.2812 219.951 73.2541C219.269 74.1865 218.108 75.247 217.613 76.2055C217.346 76.7228 217.054 78.0465 216.796 78.7218C215.592 81.9736 214.078 85.6103 210.237 86.2222C208.773 86.4553 206.725 85.6864 205.395 84.823C204.068 83.9611 203.658 81.5942 202.197 81.4993C201.654 81.464 201.17 82.4 201.439 82.8662C202.018 84.4868 203.427 86.0476 204.865 86.9511C205.895 87.5529 207.378 88.0561 208.509 88.2894C208.51 89.4947 208.54 90.8086 208.444 91.9999H170.179C170.147 90.7529 170.138 89.5059 170.154 88.2588Z" fill="#FAFAF6"/>
<path d="M167.662 67.2043C168.621 67.1629 168.712 67.4137 169.202 68.1545C168.866 68.8256 168.219 69.4356 167.946 70.048C167.544 70.9521 167.967 71.7273 167.086 72.4895C165.206 72.6489 165.52 71.056 165.873 69.7628C166.179 68.642 166.634 67.7712 167.662 67.2043Z" fill="#1F3980"/>
<path d="M210.265 67.2026C211.25 67.1762 211.765 67.7687 212.233 68.601C212.858 69.7148 213.667 71.663 212.263 72.4703C210.592 72.5507 211.19 71.4133 210.885 70.4161C210.511 69.1891 208.41 68.5269 210.265 67.2026Z" fill="#1F3980"/>
<path d="M187.773 3.90199C188.554 3.81082 190.389 3.83803 191.208 3.86988C195.965 4.00854 200.656 5.03666 205.042 6.90211C211.908 9.74493 219.309 15.0543 223.968 20.9263C227.838 25.8055 231.945 32.778 234.332 38.5469C232.821 38.567 231.061 38.7806 229.519 38.8393C224.136 39.0442 218.641 39.6445 213.281 39.8285C213.451 34.666 214.663 29.8328 216.072 24.8691C216.306 23.8729 218.765 19.1117 215.936 19.8575C214.713 20.1797 213.464 25.4467 213.151 26.6568C210.306 37.6361 207.734 53.8394 219.542 60.4704C219.155 60.8701 218.756 61.6578 218.22 61.6754C217.411 61.7949 217.022 61.8802 216.281 62.1967C215.564 60.475 214.09 59.6328 212.267 60.341C210.746 60.9321 209.578 62.6413 208.943 64.1076C207.921 63.6664 206.793 63.248 205.698 63.6219C202.939 64.5635 203.581 67.9515 204.209 70.0081C202.22 70.4277 200.474 71.0386 198.404 71.3776C191.751 72.503 184.937 72.1951 178.409 70.4743C177.19 70.15 175.853 69.8247 174.703 69.3177C176.046 65.5487 173.772 62.0304 169.674 64.073C168.316 60.8849 164.26 57.8334 162.175 62.1407C161.736 61.811 161.311 61.4618 160.903 61.0941C157.438 58.0193 155.578 53.7746 155.131 49.1445C154.787 45.5779 156.028 42.8548 156.592 39.4765C156.965 37.2391 156.882 34.6395 157.236 32.3282C158.221 25.8927 160.76 19.1204 165.037 14.2055C170.893 7.4757 179.126 4.46077 187.773 3.90199Z" fill="#FAFAF6"/>
<path d="M188.494 34.3893C188.744 33.8175 189.04 33.2672 189.379 32.7438C190.662 30.7836 192.772 29.3267 194.995 28.691C200.745 27.0466 206.239 30.9101 207.33 36.7175C207.8 39.357 207.214 42.0768 205.701 44.281C204.228 46.4379 201.97 47.9183 199.42 48.3983C197.037 48.7293 195.103 48.5489 192.988 47.4202C192.925 48.2777 192.735 49.5095 192.123 50.1617C190.402 51.9949 186.993 51.9764 185.132 50.3802C184.292 49.6599 183.963 48.4157 183.926 47.337C180.588 49.292 175.946 48.7862 173.025 46.2916C166.237 40.4934 169.658 29.1819 178.584 28.3363C180.951 28.0725 183.473 28.9564 185.335 30.4099C186.798 31.5518 187.6 32.7899 188.494 34.3893Z" fill="#1F3980"/>
<path d="M178.049 30.7432C182.272 30.0149 186.278 32.8887 186.987 37.1553C187.695 41.4219 184.838 45.4584 180.611 46.1616C176.401 46.8618 172.424 43.9907 171.718 39.7419C171.013 35.4931 173.844 31.4685 178.049 30.7432Z" fill="#FAFAF6"/>
<path d="M182.054 35.6944C183.729 35.3758 185.347 36.4761 185.684 38.1633C186.021 39.8506 184.952 41.4982 183.286 41.8602C182.189 42.0987 181.05 41.7225 180.304 40.8757C179.558 40.0289 179.321 38.8423 179.683 37.7697C180.046 36.6971 180.951 35.9043 182.054 35.6944Z" fill="#1F3980"/>
<path d="M197.198 30.6466C201.462 30.4361 205.089 33.7549 205.299 38.0608C205.51 42.3667 202.226 46.0305 197.962 46.2456C193.695 46.461 190.063 43.141 189.852 38.8318C189.642 34.5226 192.931 30.8573 197.198 30.6466Z" fill="#FAFAF6"/>
<path d="M193.56 35.6891C195.241 35.2817 196.932 36.3249 197.34 38.0216C197.748 39.7183 196.72 41.4286 195.041 41.8454C193.355 42.2639 191.653 41.2204 191.244 39.5171C190.834 37.8138 191.872 36.0982 193.56 35.6891Z" fill="#1F3980"/>
<path d="M188.442 42.8264C188.779 43.1182 189.311 44.1781 189.528 44.5917L188.53 44.6275L187.36 44.5674C187.626 44.025 188.101 43.3456 188.442 42.8264Z" fill="#FAFAF6"/>
<path d="M159.301 17.9596C159.423 18.119 159.393 18.0337 159.286 18.235C155.76 24.9042 154.569 31.7421 154.254 39.233C151.749 39.2892 149.094 39.4676 146.57 39.5735L146.506 39.5345L146.488 39.3548C149.367 32.6042 152.241 25.6446 157.141 20.0835C157.704 19.4448 158.67 18.5634 159.301 17.9596Z" fill="#FAFAF6"/>
</svg>
